<?xml version="1.0" standalone="no"?>
<!DOCTYPE svg PUBLIC "-//W3C//DTD SVG 20010904//EN"
 "http://www.w3.org/TR/2001/REC-SVG-20010904/DTD/svg10.dtd">
<svg version="1.0" xmlns="http://www.w3.org/2000/svg"
 width="502.000000pt" height="497.000000pt" viewBox="0 0 502.000000 497.000000"
 preserveAspectRatio="xMidYMid meet">

<g transform="translate(0.000000,497.000000) scale(0.100000,-0.100000)"
fill="#000000" stroke="none">
<path d="M3646 4595 c80 -132 114 -192 114 -202 0 -18 49 -71 96 -104 38 -26
55 -30 131 -35 49 -2 105 -9 127 -15 21 -6 40 -8 43 -5 3 3 -16 10 -41 17 -33
8 -54 21 -72 44 -14 18 -41 41 -59 50 -19 9 -35 22 -35 29 0 8 -7 17 -16 20
-8 3 -12 10 -9 16 3 5 -1 10 -9 10 -8 0 -20 8 -26 18 -9 13 -10 10 -5 -18 l6
-35 -19 33 c-10 18 -21 30 -24 26 -4 -3 -20 8 -37 26 -16 18 -34 29 -40 26 -6
-4 -14 0 -17 8 -3 9 -10 14 -14 11 -8 -5 -34 20 -90 85 l-22 25 18 -30z"/>
<path d="M1288 4565 c-10 -13 -18 -28 -18 -33 0 -12 -60 -55 -67 -48 -4 3 -1
6 5 6 7 0 12 5 12 10 0 18 -21 10 -52 -20 -32 -33 -51 -39 -41 -15 5 13 2 14
-20 4 -14 -6 -31 -25 -36 -41 -7 -20 -16 -28 -25 -25 -8 3 -17 -1 -20 -9 -3
-8 -18 -14 -33 -15 l-28 0 25 -10 c25 -10 25 -11 5 -24 -11 -8 -25 -19 -32
-25 -7 -5 -16 -10 -21 -10 -4 0 -18 -13 -30 -30 -13 -16 -26 -29 -30 -28 -4 1
-20 -6 -37 -15 -27 -17 -28 -18 -5 -12 14 3 79 8 144 11 l119 4 60 48 c56 44
61 52 81 122 12 41 34 99 49 128 28 54 25 69 -5 27z"/>
<path d="M1015 4440 c-3 -5 -1 -10 4 -10 6 0 11 5 11 10 0 6 -2 10 -4 10 -3 0
-8 -4 -11 -10z"/>
<path d="M925 4370 c-3 -5 -1 -10 4 -10 6 0 11 5 11 10 0 6 -2 10 -4 10 -3 0
-8 -4 -11 -10z"/>
<path d="M819 4273 c-13 -16 -12 -17 4 -4 9 7 17 15 17 17 0 8 -8 3 -21 -13z"/>
<path d="M3640 4243 c-283 -64 -516 -138 -805 -256 l-180 -73 -3 -72 -3 -71
73 -37 c209 -105 481 -290 798 -544 210 -167 202 -163 236 -145 15 7 31 12 36
9 4 -3 5 2 2 10 -3 9 -2 16 4 16 6 0 12 -5 14 -11 2 -6 16 -11 31 -11 15 0 27
-4 27 -9 0 -5 4 -9 9 -9 12 0 9 33 -4 42 -6 5 -6 8 2 8 6 0 18 -7 27 -15 8 -8
22 -15 30 -15 9 0 16 -5 16 -11 0 -5 5 -7 12 -3 13 8 5 425 -12 619 -13 138
-52 377 -74 451 -14 44 -24 56 -81 97 -72 52 -65 51 -155 30z m40 -405 c0
-144 16 -343 36 -455 l6 -38 -78 76 c-105 101 -117 111 -201 175 -93 70 -218
148 -290 179 -31 14 -54 27 -52 29 2 2 51 15 109 29 133 32 317 94 395 134 33
17 63 31 68 32 4 0 7 -72 7 -161z"/>
<path d="M3580 3929 c-62 -27 -261 -93 -365 -122 l-50 -13 55 -29 c120 -61
295 -189 408 -299 l64 -61 -6 50 c-17 131 -26 261 -26 378 0 70 -3 127 -7 126
-5 -1 -37 -14 -73 -30z m20 -109 c38 -74 17 -140 -43 -139 -32 0 -32 0 -9 16
26 18 29 54 6 89 -14 20 -15 30 -6 49 16 35 28 31 52 -15z m-100 -12 c19 -13
36 -29 38 -37 4 -11 -1 -10 -19 2 -36 26 -67 21 -87 -11 -9 -16 -21 -28 -27
-26 -5 1 -22 5 -37 8 -36 8 -35 28 3 60 38 33 85 34 129 4z m-30 -88 c0 -28
39 -60 72 -60 21 0 33 -8 48 -32 29 -47 26 -57 -13 -49 -43 10 -67 24 -95 53
-25 27 -40 73 -34 101 5 22 22 12 22 -13z"/>
<path d="M1213 4205 c-33 -25 -63 -55 -67 -68 -3 -12 -11 -114 -18 -226 -9
-160 -9 -266 0 -485 7 -155 15 -309 19 -344 l6 -62 46 -21 c25 -11 54 -22 63
-24 9 -2 26 -9 37 -15 19 -9 28 -5 74 38 278 259 749 597 1025 736 l72 36 0
63 c0 34 -4 67 -8 74 -10 16 -245 109 -432 172 -188 63 -379 114 -548 147
-180 34 -196 33 -269 -21z m400 -284 c129 -42 357 -101 389 -101 33 0 18 -15
-34 -35 -124 -48 -340 -199 -483 -337 -49 -48 -90 -86 -91 -85 -1 1 2 62 8
136 10 125 0 377 -18 478 l-6 33 53 -24 c30 -13 111 -42 182 -65z"/>
<path d="M1423 3908 c5 -29 10 -151 10 -271 1 -121 3 -214 5 -208 2 6 45 48
95 92 99 87 263 202 360 251 l61 30 -131 33 c-72 18 -192 54 -266 79 -75 25
-138 46 -140 46 -2 0 0 -24 6 -52z m114 -66 c20 -28 21 -29 2 -53 -32 -41 -20
-89 23 -89 10 0 18 -4 18 -10 0 -19 -59 -10 -86 14 -21 17 -28 33 -28 59 0 33
31 107 44 107 4 0 16 -13 27 -28z m204 -41 c16 -16 29 -34 29 -39 0 -6 -19
-13 -42 -17 -37 -7 -43 -5 -61 19 -22 30 -61 34 -95 10 -33 -23 -26 0 9 30 24
20 41 26 81 26 41 0 54 -5 79 -29z m-81 -89 c0 -58 -84 -132 -148 -132 -26 0
-27 7 -6 48 10 21 23 32 37 32 31 0 87 36 88 57 1 10 1 27 0 38 -2 20 -1 20
14 1 8 -11 15 -31 15 -44z"/>
<path d="M2190 3182 c0 -10 -8 -29 -17 -42 -21 -30 -83 -168 -83 -185 0 -7 -6
-18 -14 -24 -8 -7 -17 -30 -21 -51 -4 -21 -13 -44 -21 -51 -8 -6 -14 -18 -14
-26 0 -9 -14 -45 -31 -82 -17 -36 -37 -79 -44 -96 -7 -16 -20 -47 -29 -68 -9
-21 -16 -43 -16 -50 0 -7 -14 -39 -30 -72 -17 -33 -30 -67 -30 -76 0 -19 36
-48 130 -105 36 -21 67 -42 70 -45 3 -4 23 -16 45 -28 22 -11 72 -44 110 -71
l70 -50 23 -82 c13 -46 27 -101 32 -123 4 -22 13 -56 20 -75 21 -65 40 -141
40 -163 0 -12 7 -34 14 -49 8 -16 17 -44 20 -63 3 -20 13 -47 22 -60 16 -24
19 -25 149 -25 157 0 156 -1 179 112 9 42 20 87 25 100 5 13 17 61 26 108 9
47 23 105 31 130 8 25 14 56 14 70 0 14 9 43 19 65 17 38 47 65 174 156 27 19
56 42 65 52 9 9 24 17 33 17 10 0 35 15 57 33 22 17 56 45 76 60 41 32 44 53
17 106 -29 55 -81 187 -81 207 0 9 -11 32 -25 50 -14 18 -25 37 -25 43 0 17
-62 161 -139 323 -28 59 -51 112 -51 117 0 5 -6 13 -13 19 -10 8 -16 5 -27
-11 -25 -38 -40 -69 -40 -82 0 -6 -9 -20 -20 -30 -18 -16 -44 -18 -297 -18
l-277 1 -28 33 c-15 19 -28 39 -28 45 -1 45 -60 100 -60 56z"/>
<path d="M4011 2803 c3 -18 -2 -33 -11 -33 -5 0 -7 7 -4 15 4 8 2 15 -4 15 -6
0 -15 -14 -21 -31 -7 -20 -21 -35 -41 -42 -33 -13 -39 -26 -65 -152 -84 -411
-231 -847 -375 -1110 l-38 -70 35 -53 c24 -36 42 -52 57 -52 32 0 296 73 416
116 255 90 590 255 614 303 8 14 22 52 32 84 21 68 20 72 -62 242 -99 208
-283 492 -441 683 -60 72 -95 104 -92 85z m110 -543 c65 -116 167 -275 227
-353 24 -32 43 -60 41 -62 -2 -1 -38 -13 -79 -25 -97 -29 -278 -100 -391 -154
-49 -24 -89 -42 -89 -39 0 2 25 54 55 116 88 183 132 332 171 586 3 18 7 31 8
30 2 -2 27 -47 57 -99z"/>
<path d="M4065 2238 c-17 -133 -90 -370 -154 -496 -17 -34 -31 -64 -31 -66 0
-3 44 16 98 40 105 49 215 93 302 120 30 9 58 20 62 23 5 4 -14 36 -40 71 -50
68 -83 121 -165 260 -27 47 -53 89 -57 93 -4 5 -11 -15 -15 -45z m85 -155 c38
-35 48 -85 26 -136 -17 -42 -42 -53 -26 -11 15 39 2 74 -30 81 -27 5 -40 31
-40 79 0 23 38 16 70 -13z m-49 -114 c-34 -20 -43 -42 -39 -93 2 -29 -4 -43
-30 -69 l-32 -32 0 60 c0 74 23 124 69 147 45 22 73 12 32 -13z m127 -45 c31
-9 28 -22 -18 -66 -60 -56 -116 -48 -133 20 -6 26 -1 28 19 7 23 -22 40 -18
66 14 25 32 30 34 66 25z"/>
<path d="M996 2682 c-8 -13 87 -155 146 -217 31 -33 69 -76 85 -96 16 -20 45
-52 66 -71 20 -20 37 -40 37 -47 0 -16 -1 -15 -50 29 -24 22 -52 43 -62 46
-10 3 -18 9 -18 14 0 5 -18 19 -40 31 -24 14 -40 30 -40 41 0 19 -38 40 -54
30 -5 -3 -7 2 -3 11 5 12 1 17 -13 17 -11 0 -20 4 -20 9 0 5 -15 15 -32 22
l-33 12 34 6 33 6 -21 19 c-12 11 -19 26 -17 33 3 7 2 13 -3 13 -5 0 -12 12
-15 26 -4 14 -11 24 -15 22 -14 -5 -176 -202 -254 -307 -80 -108 -218 -318
-265 -402 l-31 -57 25 -80 24 -80 78 -45 c248 -143 540 -257 912 -358 79 -21
147 -39 151 -39 4 0 25 24 47 53 l40 54 -48 99 c-83 169 -191 451 -295 769
-25 77 -43 125 -40 106 5 -33 5 -33 -18 -19 -12 9 -23 25 -25 36 -2 11 -15 28
-30 38 -36 24 -112 106 -112 121 0 7 -4 13 -10 13 -5 0 -10 7 -10 16 0 8 -4
13 -9 10 -5 -3 -24 23 -42 59 -33 63 -43 73 -53 57z m93 -499 c29 -156 74
-285 151 -440 37 -73 66 -133 65 -133 -2 0 -38 16 -81 36 -132 60 -325 131
-471 174 -40 11 -73 23 -73 27 0 3 28 36 63 73 80 84 202 247 264 352 55 93
46 103 82 -89z"/>
<path d="M997 2202 c-61 -94 -142 -203 -210 -282 l-55 -64 167 -56 c91 -31
207 -75 257 -97 l92 -41 -44 92 c-55 117 -111 283 -139 416 l-22 105 -46 -73z
m29 -133 c-3 -17 -6 -37 -6 -44 0 -7 -13 -15 -29 -18 -40 -8 -56 -39 -42 -79
15 -44 6 -47 -19 -7 -31 49 -23 114 19 151 17 16 43 28 57 28 24 0 26 -3 20
-31z m35 -106 c17 -15 38 -42 45 -60 15 -34 19 -115 7 -127 -4 -3 -21 8 -39
25 -30 29 -33 36 -27 75 5 37 2 46 -20 68 -14 14 -33 26 -42 26 -9 0 -13 5
-10 10 11 19 53 10 86 -17z m-127 -68 c35 -37 58 -39 83 -7 20 25 26 7 9 -27
-34 -64 -89 -64 -151 -1 -40 41 -40 53 0 63 11 3 21 5 23 6 2 0 18 -15 36 -34z"/>
<path d="M93 2035 c42 -175 51 -205 63 -205 8 0 14 -5 14 -11 0 -5 -5 -7 -11
-3 -18 11 -1 -49 18 -63 8 -7 13 -19 10 -27 -3 -8 -1 -31 5 -52 7 -29 12 -34
20 -23 7 10 8 9 3 -7 -7 -27 4 -56 18 -47 6 4 7 1 3 -6 -9 -15 13 -73 25 -66
4 3 6 -4 4 -15 -2 -11 1 -20 6 -20 6 0 8 -4 5 -8 -2 -4 -1 -14 4 -21 5 -9 16
20 29 80 12 52 28 105 35 118 12 21 10 34 -12 100 -17 50 -34 83 -51 96 -14
10 -53 45 -86 76 -33 32 -63 57 -67 56 -3 -1 -10 2 -15 7 -5 5 -3 6 5 2 18
-11 14 6 -9 34 -17 21 -20 22 -16 5z m49 -80 c0 -5 -5 -11 -11 -13 -6 -2 -11
4 -11 13 0 9 5 15 11 13 6 -2 11 -8 11 -13z m12 -91 c3 -8 2 -12 -4 -9 -6 3
-10 10 -10 16 0 14 7 11 14 -7z m49 -149 c-3 -9 -8 -14 -10 -11 -3 3 -2 9 2
15 9 16 15 13 8 -4z"/>
<path d="M4840 1982 c-14 -20 -51 -64 -82 -98 -47 -49 -62 -75 -79 -130 -19
-61 -20 -76 -10 -136 6 -37 12 -91 12 -120 1 -29 4 -44 6 -33 3 10 13 31 21
45 15 23 15 24 0 12 -14 -11 -16 -11 -11 8 3 11 9 23 14 25 4 3 6 12 3 19 -3
8 0 17 7 22 8 5 10 3 4 -6 -5 -8 -4 -11 3 -6 6 3 10 20 10 37 -1 16 4 35 10
41 13 13 11 -9 -3 -32 -7 -13 -6 -13 7 -2 9 7 19 32 23 55 4 23 15 60 26 83
21 45 31 104 17 104 -5 0 -6 5 -3 10 4 6 11 7 17 4 6 -4 8 -2 5 3 -4 6 2 37
13 69 10 32 18 59 17 61 -1 1 -14 -15 -27 -35z"/>
<path d="M2440 1126 c-70 -20 -129 -54 -187 -109 -50 -47 -52 -51 -37 -68 13
-15 20 -16 35 -6 10 6 19 17 19 22 0 22 78 85 142 115 74 35 179 54 248 46 32
-4 39 -3 25 3 -29 14 -193 11 -245 -3z"/>
<path d="M2406 985 c-23 -16 -51 -25 -74 -25 -45 0 -75 -19 -96 -62 -29 -57
-19 -68 64 -68 29 0 50 5 53 13 3 7 6 5 6 -5 1 -15 -8 -18 -57 -18 l-58 0 -22
-45 c-25 -51 -26 -55 -14 -55 5 0 17 18 27 40 10 22 22 37 27 34 4 -3 2 -15
-7 -26 -19 -29 -3 -48 40 -48 35 0 71 30 62 52 -3 8 2 14 13 14 17 0 17 -3 3
-29 -8 -16 -11 -32 -7 -35 4 -4 9 -2 11 4 2 6 10 20 18 30 14 18 14 18 15 -8
0 -49 48 -41 70 11 7 17 10 37 6 46 -3 8 -2 15 3 15 5 0 16 11 25 25 16 25 16
25 -9 13 -14 -6 -28 -9 -31 -5 -12 12 19 48 46 54 17 3 32 14 35 24 4 11 11
19 16 19 5 0 0 -18 -11 -40 -25 -50 -25 -66 1 -81 21 -11 45 -9 84 6 15 7 13
2 -9 -21 -24 -25 -56 -80 -56 -99 0 -11 57 -4 77 10 28 20 37 65 12 65 -20 0
-26 24 -9 35 6 4 8 10 5 15 -3 5 -1 11 5 15 5 3 10 -3 10 -14 0 -27 9 -26 54
4 45 30 48 30 64 5 7 -11 19 -20 27 -20 12 0 14 8 9 40 -6 39 -1 46 29 41 5
-1 6 3 3 8 -3 5 1 14 9 21 20 16 19 34 0 26 -9 -3 -34 4 -57 16 -114 60 -305
7 -355 -97 -28 -58 -53 -39 -28 21 15 37 12 60 -7 48 -6 -4 -19 -27 -30 -52
l-21 -46 23 -18 c12 -10 33 -18 46 -18 27 0 32 -23 12 -65 -14 -31 -25 -32
-25 -2 0 13 -15 38 -32 57 -17 19 -31 38 -31 43 0 5 -22 7 -50 6 -27 -2 -50 1
-50 7 0 5 21 9 46 10 33 1 49 6 56 18 9 16 5 18 -41 15 -31 -3 -50 0 -48 6 2
6 24 10 49 10 46 0 78 17 78 40 0 7 10 20 23 28 12 9 19 16 16 16 -3 1 -23
-10 -43 -24z m374 -15 c30 -10 59 -16 65 -13 5 4 -1 -6 -14 -20 -31 -34 -47
-34 -55 -2 -4 16 -13 25 -26 25 -23 0 -25 -9 -8 -45 11 -24 9 -28 -18 -50 -40
-32 -50 -11 -24 49 l19 46 -62 0 c-39 0 -57 -4 -48 -9 7 -5 10 -14 7 -20 -4
-6 -3 -11 3 -11 5 0 16 -3 24 -6 9 -3 16 3 20 17 4 13 9 20 13 17 3 -4 -5 -26
-18 -50 -23 -42 -45 -55 -74 -44 -13 5 -13 10 1 37 10 18 14 41 11 55 -5 20
-1 25 26 33 51 14 98 12 158 -9z m-451 -199 c21 -13 4 -31 -30 -31 -31 0 -36
9 -17 28 14 14 28 15 47 3z m329 -13 c-5 -15 -35 -34 -43 -27 -3 4 -3 14 1 23
7 18 48 23 42 4z"/>
<path d="M2790 930 c0 -5 5 -10 11 -10 5 0 7 5 4 10 -3 6 -8 10 -11 10 -2 0
-4 -4 -4 -10z"/>
<path d="M2705 899 c-8 -23 -1 -34 14 -24 13 8 15 45 2 45 -5 0 -13 -9 -16
-21z"/>
<path d="M2606 876 c10 -8 21 -12 24 -10 5 6 -21 24 -34 24 -6 0 -1 -6 10 -14z"/>
<path d="M2305 760 c3 -5 8 -10 11 -10 2 0 4 5 4 10 0 6 -5 10 -11 10 -5 0 -7
-4 -4 -10z"/>
<path d="M2965 973 c-22 -3 -46 -10 -54 -16 -18 -16 -53 -96 -45 -108 11 -18
101 -10 125 11 19 15 21 21 11 28 -11 7 -10 10 3 16 9 3 14 10 11 15 -4 5 0
12 6 14 8 4 7 6 -4 6 -9 1 -20 -3 -23 -9 -3 -5 -22 -9 -41 -8 -46 2 -31 15 30
25 27 5 51 14 54 21 2 7 -4 11 -15 10 -10 -1 -36 -3 -58 -5z m14 -87 c-10 -9
-79 -14 -74 -5 4 5 22 9 42 9 20 0 34 -2 32 -4z"/>
<path d="M2071 915 c-13 -31 -22 -58 -19 -60 2 -3 25 -8 51 -11 53 -8 90 10
109 51 8 19 7 29 -5 48 -12 19 -25 24 -64 25 l-48 2 -24 -55z m107 4 c4 -24
-25 -49 -59 -49 -34 0 -34 1 -13 41 12 24 21 30 42 27 15 -2 28 -10 30 -19z"/>
<path d="M2840 884 c0 -8 5 -12 10 -9 6 4 8 11 5 16 -9 14 -15 11 -15 -7z"/>
<path d="M2193 849 c-7 -9 -8 -20 -3 -29 12 -20 -6 -50 -31 -50 -16 0 -19 4
-14 20 10 31 -13 24 -30 -10 -21 -40 -19 -57 3 -37 24 22 56 23 48 2 -12 -32
15 -13 32 23 21 42 17 107 -5 81z"/>
<path d="M2750 842 c-15 -12 -24 -32 -26 -57 -2 -27 -13 -49 -36 -73 l-33 -35
42 23 c23 13 40 27 36 33 -3 5 4 22 16 38 11 15 21 35 21 43 0 8 4 16 10 18 5
2 6 9 1 16 -6 10 -13 9 -31 -6z"/>
<path d="M3203 843 c-13 -2 -23 -9 -23 -14 0 -5 12 -6 26 -3 19 5 25 4 20 -5
-4 -6 -15 -11 -25 -11 -21 0 -58 -37 -47 -47 4 -4 11 -1 15 6 6 9 18 11 36 7
22 -6 26 -4 22 8 -3 8 1 20 9 26 8 7 14 19 14 26 0 14 -6 15 -47 7z"/>
<path d="M1825 820 c-14 -15 -15 -23 -6 -34 13 -16 59 -27 66 -16 3 4 -9 10
-26 14 -42 8 -32 30 14 34 21 2 35 7 32 13 -11 16 -61 10 -80 -11z"/>
<path d="M2517 827 c-3 -8 0 -20 6 -26 6 -6 7 -11 1 -11 -10 0 -49 -59 -42
-64 1 -2 11 -7 21 -13 24 -12 -80 -16 -132 -4 -20 4 -45 5 -56 1 -35 -13 63
-33 130 -27 60 5 115 23 115 38 0 4 -12 10 -27 12 -26 4 -26 4 5 6 39 1 43 18
5 24 -23 3 -21 4 10 6 20 0 37 6 37 11 0 6 -5 10 -11 10 -5 0 -7 5 -4 10 3 6
1 10 -6 10 -7 0 -20 7 -29 15 -15 14 -18 14 -23 2z"/>
<path d="M1920 811 c-14 -28 -13 -39 8 -50 27 -14 58 -3 71 25 13 30 14 34 3
34 -5 0 -14 -11 -20 -25 -7 -15 -20 -25 -33 -25 -18 0 -20 4 -14 30 8 34 1 39
-15 11z"/>
<path d="M2840 815 c0 -8 -8 -15 -19 -15 -26 0 -71 -38 -71 -61 0 -15 7 -19
35 -19 19 0 35 5 35 10 0 6 -11 10 -25 10 -14 0 -25 4 -25 8 0 17 25 32 53 32
26 0 29 -3 23 -25 -6 -23 -4 -25 31 -25 21 0 43 4 49 8 16 10 34 48 27 56 -10
10 -71 7 -78 -4 -4 -6 6 -7 25 -4 23 5 30 3 30 -9 0 -8 -7 -20 -15 -27 -20
-16 -51 -8 -47 13 2 9 -2 17 -8 17 -25 0 -6 20 25 26 47 9 44 24 -5 24 -29 0
-40 -4 -40 -15z"/>
<path d="M3081 804 c-31 -39 -27 -54 14 -54 19 0 35 5 35 11 0 6 -9 9 -20 6
-11 -3 -23 -1 -26 4 -3 5 5 9 18 9 13 0 30 5 38 10 12 7 8 10 -15 11 l-30 1
33 9 c40 12 41 19 3 19 -20 0 -36 -9 -50 -26z"/>
<path d="M2027 814 c-4 -4 -7 -16 -7 -26 0 -13 7 -18 26 -18 14 0 22 -4 19
-10 -3 -5 -20 -7 -38 -3 -25 4 -29 3 -21 -6 17 -19 78 -10 82 12 3 12 -3 17
-22 17 -14 0 -26 5 -26 11 0 7 11 8 29 4 17 -3 32 -2 36 4 3 6 -2 11 -12 11
-10 0 -27 3 -38 6 -11 3 -24 2 -28 -2z"/>
<path d="M3027 788 c-14 -19 -29 -29 -33 -24 -5 5 -3 11 4 13 10 4 10 8 1 19
-16 20 -29 8 -29 -27 0 -41 30 -38 69 6 33 38 36 45 22 45 -5 0 -20 -15 -34
-32z"/>
<path d="M2885 769 c-12 -19 5 -23 22 -6 16 16 16 17 1 17 -9 0 -20 -5 -23
-11z"/>
<path d="M2780 676 c-57 -54 -136 -84 -249 -95 l-86 -8 87 -2 c130 -2 254 45
328 124 l23 25 -29 0 c-20 0 -42 -13 -74 -44z"/>
<path d="M2335 134 c-44 -25 -69 -42 -55 -38 39 11 144 5 168 -10 7 -4 19 -3
26 3 8 7 16 7 23 0 6 -6 18 -6 35 0 15 5 40 8 57 6 21 -3 29 0 25 7 -4 6 1 8
12 5 11 -3 35 -9 54 -12 31 -6 28 -2 -35 39 -69 45 -71 46 -150 45 -76 -1 -84
-3 -160 -45z"/>
</g>
</svg>
